solid AssimpScene
 facet normal 0 0 1
  outer loop
  vertex -35 60 20
  vertex -55 60 20
  vertex -35 40 20
  endloop
 endfacet

 facet normal 0 0 1
  outer loop
  vertex -35 40 20
  vertex -55 60 20
  vertex -55 40 20
  endloop
 endfacet

 facet normal 0 0 -1
  outer loop
  vertex -35 40 0
  vertex -55 40 0
  vertex -35 60 0
  endloop
 endfacet

 facet normal 0 0 -1
  outer loop
  vertex -35 60 0
  vertex -55 40 0
  vertex -55 60 0
  endloop
 endfacet

 facet normal 0 -1 0
  outer loop
  vertex -55 40 20
  vertex -55 40 0
  vertex -35 40 20
  endloop
 endfacet

 facet normal 0 -1 0
  outer loop
  vertex -35 40 20
  vertex -55 40 0
  vertex -35 40 0
  endloop
 endfacet

 facet normal -1 0 0
  outer loop
  vertex -55 60 20
  vertex -55 60 0
  vertex -55 40 20
  endloop
 endfacet

 facet normal -1 0 0
  outer loop
  vertex -55 40 20
  vertex -55 60 0
  vertex -55 40 0
  endloop
 endfacet

 facet normal 0 1 0
  outer loop
  vertex -35 60 20
  vertex -35 60 0
  vertex -55 60 20
  endloop
 endfacet

 facet normal 0 1 0
  outer loop
  vertex -55 60 20
  vertex -35 60 0
  vertex -55 60 0
  endloop
 endfacet

 facet normal 1 0 0
  outer loop
  vertex -35 40 20
  vertex -35 40 0
  vertex -35 60 20
  endloop
 endfacet

 facet normal 1 0 0
  outer loop
  vertex -35 60 20
  vertex -35 40 0
  vertex -35 60 0
  endloop
 endfacet

endsolid AssimpScene
